<svg width="259" height="87" viewBox="0 0 259 87" fill="none" xmlns="http://www.w3.org/2000/svg">
<path d="M240.976 53.6445C234.282 53.6445 228.614 49.1215 228.614 38.749C228.614 28.1955 234.403 23.4917 240.675 23.4917C245.198 23.4917 247.972 25.9642 248.937 28.3764H249.057V24.0948H258.586V53.0414H249.057V49.2422H248.997C247.67 51.7147 245.379 53.6445 240.976 53.6445ZM238.202 38.8696C238.202 43.3322 240.615 45.3223 243.63 45.3223C246.102 45.3223 248.937 44.0559 249.057 39.0505V37.9047C248.876 33.5024 246.163 31.8139 243.69 31.8139C240.615 31.8139 238.202 34.3467 238.202 38.8696Z" fill="#00BBA7"/>
<path d="M171.773 53.0414V24.0948H181.302V30.065H181.422C182.689 26.2054 185.222 23.4917 189.081 23.4917C190.227 23.4917 190.951 23.6123 191.554 23.9138V34.0452C190.167 33.2009 188.659 32.8994 187.212 32.8994C184.377 32.8994 181.844 34.1658 181.302 37.9047V53.0414H171.773Z" fill="#00BBA7"/>
<path d="M215.999 36.2764C215.999 32.839 214.431 31.5726 212.079 31.5726C209.003 31.5726 207.375 33.5627 206.832 38.3871V53.0413H197.304V9.19922H206.832V28.9794H207.013C208.762 25.7832 210.933 23.4916 215.758 23.4916C221.487 23.4916 225.527 26.8687 225.527 33.8039V53.0413H215.999V36.2764Z" fill="#00BBA7"/>
<path d="M147.826 53.6445C141.132 53.6445 135.463 49.1215 135.463 38.749C135.463 28.1955 141.252 23.4917 147.524 23.4917C152.047 23.4917 154.821 25.9642 155.786 28.3764H155.906V24.0948H165.435V53.0414H155.906V49.2422H155.846C154.519 51.7147 152.228 53.6445 147.826 53.6445ZM145.051 38.8696C145.051 43.3322 147.464 45.3223 150.479 45.3223C152.951 45.3223 155.786 44.0559 155.906 39.0505V37.9047C155.726 33.5024 153.012 31.8139 150.539 31.8139C147.464 31.8139 145.051 34.3467 145.051 38.8696Z" fill="#00BBA7"/>
<path d="M112.915 53.6443C107.367 53.6443 102.844 52.5589 99.5273 50.81V38.5077C101.337 40.4977 105.437 43.7542 114.242 43.7542C119.85 43.7542 121.539 42.1863 121.539 40.2565C121.539 33.3214 99.7083 38.2061 99.7083 22.4664C99.7083 15.5313 103.93 10.1641 116.111 10.1641C122.745 10.1641 126.846 11.7923 129.017 13.5412L128.655 24.8786C126.966 22.3458 121.659 19.7526 116.232 19.7526C111.95 19.7526 110.865 21.3809 110.865 22.7679C110.865 28.7382 130.947 24.2152 130.947 40.0153C130.947 48.3375 125.338 53.6443 112.915 53.6443Z" fill="#00BBA7"/>
<path d="M35.748 0.0776367C46.8903 -0.52541 64.2737 2.06834 64.9443 18.7729C65.6142 36.7439 12.8441 54.7148 5.10645 55.0767C2.32114 55.2574 0.154811 53.6893 0 50.1919C0 49.5285 0.619268 48.6233 1.23828 48.563C2.21791 48.5632 0.929082 49.7695 3.86914 49.6489C5.36582 49.5282 12.9481 48.5632 12.8965 46.6938C12.7941 43.979 37.0377 8.09821 36.9346 5.92725C36.9345 5.5053 36.6249 5.44482 36.3154 5.44482C29.8674 5.80665 18.7769 8.27919 13.1025 11.5356C12.7931 11.7165 11.6582 12.3803 11.3486 12.3804C10.0074 12.4407 8.71777 9.60577 8.71777 8.33936C8.51256 3.8166 31.673 0.25855 35.748 0.0776367ZM87.0312 44.4067C88.2177 44.4067 88.4248 47.4821 88.4248 48.5073C88.4246 49.7737 86.6709 52.2461 85.5361 52.2466C84.0402 52.2466 82.6476 50.1958 82.6475 48.5073C82.6475 46.035 85.1227 44.407 87.0312 44.4067ZM73.9863 20.3403C74.6052 20.3404 75.2755 20.7027 75.8428 21.6069C76.8744 23.2351 75.8947 24.1401 77.0811 24.1401C77.6485 24.1401 78.7836 23.8992 80.9502 23.4771C81.724 23.3564 83.1169 23.0542 84.458 23.0542C86.4181 23.0543 88.3777 23.5977 88.584 25.8892C88.7386 27.5172 87.6558 28.1802 86.6758 28.1802C86.2115 28.1802 85.7989 27.9993 85.541 27.6978C85.1284 27.2154 84.8188 27.0347 84.4062 27.0347C84.0967 27.0347 83.6836 27.1553 83.1162 27.2759C72.7995 29.2057 68.4145 34.995 62.7402 44.5835C61.9665 45.9102 60.7285 48.3228 59.2842 48.3228C58.8201 48.3226 58.3557 48.0814 57.8916 47.5991C55.8283 45.4282 58.6654 41.6288 59.9551 39.7593C63.2565 34.8745 67.1256 29.6882 69.9111 24.3813C70.6849 22.8737 72.3356 20.3403 73.9863 20.3403ZM40.752 5.44482C41.5773 6.46999 41.8869 7.61595 41.9385 9.12354C41.9901 10.6915 40.8549 11.6569 39.8232 12.4409C37.8106 13.9501 20.0165 42.5907 19.2412 45.186C27.7531 43.256 61.3853 28.7226 60.9727 17.144C60.6629 9.36488 48.6959 5.3243 40.752 5.44482Z" fill="#00BBA7"/>
<path d="M58.8656 81.1367H57.4401L62.8587 66.2411H64.3133L69.7319 81.1367H68.3063L63.6369 68.0085H63.5351L58.8656 81.1367ZM59.8912 75.4272H67.2808V76.6491H59.8912V75.4272ZM74.0545 66.2411V81.1367H72.6944V66.2411H74.0545ZM84.5944 66.2411H86.1655L91.5695 79.2166H91.7004L97.1044 66.2411H98.6754V81.1367H97.3953V69.1141H97.279L92.2532 81.1367H91.0167L85.9909 69.1141H85.8745V81.1367H84.5944V66.2411ZM107.293 81.3695C106.25 81.3695 105.349 81.127 104.587 80.6421C103.826 80.1524 103.237 79.476 102.82 78.6129C102.408 77.745 102.202 76.7461 102.202 75.6163C102.202 74.4914 102.408 73.4925 102.82 72.6198C103.237 71.7421 103.811 71.056 104.544 70.5614C105.281 70.062 106.132 69.8123 107.097 69.8123C107.703 69.8123 108.287 69.9238 108.849 70.1469C109.412 70.3651 109.916 70.702 110.362 71.1578C110.813 71.6088 111.17 72.1785 111.431 72.867C111.693 73.5507 111.824 74.3605 111.824 75.2963V75.9364H103.096V74.7945H110.5C110.5 74.0768 110.355 73.4319 110.064 72.8598C109.778 72.2828 109.378 71.827 108.864 71.4924C108.355 71.1578 107.766 70.9906 107.097 70.9906C106.389 70.9906 105.766 71.1797 105.227 71.5579C104.689 71.9361 104.267 72.4355 103.962 73.0562C103.661 73.6768 103.508 74.3556 103.504 75.0927V75.7763C103.504 76.6637 103.656 77.4395 103.962 78.1038C104.272 78.7632 104.711 79.2748 105.278 79.6384C105.846 80.0021 106.517 80.1839 107.293 80.1839C107.821 80.1839 108.284 80.1015 108.682 79.9366C109.085 79.7718 109.422 79.5512 109.693 79.2748C109.969 78.9935 110.178 78.6856 110.319 78.3511L111.548 78.7511C111.378 79.2214 111.099 79.6554 110.711 80.053C110.328 80.4506 109.848 80.7706 109.271 81.0131C108.699 81.2507 108.04 81.3695 107.293 81.3695ZM119.109 81.3695C118.192 81.3695 117.39 81.127 116.701 80.6421C116.013 80.1573 115.475 79.4808 115.087 78.6129C114.704 77.745 114.512 76.734 114.512 75.58C114.512 74.4308 114.704 73.4247 115.087 72.5616C115.475 71.6936 116.015 71.0196 116.709 70.5396C117.402 70.0547 118.209 69.8123 119.131 69.8123C119.809 69.8123 120.374 69.9335 120.825 70.1759C121.276 70.4135 121.637 70.7093 121.909 71.0633C122.181 71.4172 122.391 71.7615 122.542 72.0961H122.658V66.2411H123.96V81.1367H122.694V79.0638H122.542C122.391 79.4033 122.178 79.7524 121.902 80.1112C121.625 80.4652 121.259 80.7634 120.803 81.0058C120.353 81.2482 119.788 81.3695 119.109 81.3695ZM119.262 80.1839C119.984 80.1839 120.6 79.9875 121.109 79.5948C121.618 79.1972 122.006 78.6517 122.273 77.9583C122.544 77.2601 122.68 76.46 122.68 75.5581C122.68 74.666 122.547 73.878 122.28 73.1943C122.013 72.5058 121.625 71.9676 121.116 71.5797C120.607 71.1869 119.989 70.9906 119.262 70.9906C118.515 70.9906 117.884 71.1942 117.37 71.6015C116.861 72.004 116.473 72.5494 116.207 73.238C115.945 73.9265 115.814 74.6999 115.814 75.5581C115.814 76.4261 115.947 77.2092 116.214 77.9074C116.481 78.6056 116.869 79.1608 117.378 79.573C117.892 79.9803 118.52 80.1839 119.262 80.1839ZM128.072 81.1367V69.965H129.374V81.1367H128.072ZM128.734 68.0449C128.467 68.0449 128.239 67.9552 128.05 67.7758C127.861 67.5915 127.766 67.3709 127.766 67.1139C127.766 66.8569 127.861 66.6387 128.05 66.4593C128.239 66.2751 128.467 66.1829 128.734 66.1829C129 66.1829 129.228 66.2751 129.417 66.4593C129.606 66.6387 129.701 66.8569 129.701 67.1139C129.701 67.3709 129.606 67.5915 129.417 67.7758C129.228 67.9552 129 68.0449 128.734 68.0449ZM137.571 81.3695C136.572 81.3695 135.702 81.1197 134.96 80.6203C134.223 80.1209 133.651 79.4372 133.244 78.5693C132.836 77.7013 132.633 76.7122 132.633 75.6018C132.633 74.4817 132.839 73.4853 133.251 72.6125C133.668 71.7397 134.245 71.056 134.982 70.5614C135.719 70.062 136.575 69.8123 137.549 69.8123C138.296 69.8123 138.972 69.9578 139.579 70.2487C140.185 70.5348 140.684 70.9396 141.077 71.4633C141.474 71.9821 141.724 72.5882 141.826 73.2816H140.517C140.381 72.6513 140.054 72.1131 139.535 71.667C139.021 71.216 138.366 70.9906 137.571 70.9906C136.858 70.9906 136.228 71.1845 135.68 71.5724C135.132 71.9555 134.703 72.4913 134.393 73.1798C134.087 73.8635 133.934 74.6563 133.934 75.5581C133.934 76.4649 134.085 77.2674 134.385 77.9656C134.686 78.659 135.108 79.202 135.651 79.5948C136.199 79.9875 136.839 80.1839 137.571 80.1839C138.066 80.1839 138.517 80.0918 138.924 79.9075C139.336 79.7184 139.68 79.4518 139.957 79.1075C140.238 78.7632 140.427 78.3535 140.524 77.8783H141.833C141.736 78.5523 141.496 79.1535 141.113 79.6821C140.735 80.2057 140.243 80.6179 139.637 80.9185C139.035 81.2191 138.347 81.3695 137.571 81.3695ZM148.138 81.3913C147.464 81.3913 146.848 81.2604 146.29 80.9985C145.733 80.7318 145.289 80.3488 144.959 79.8494C144.63 79.3451 144.465 78.7341 144.465 78.0165C144.465 77.4637 144.569 76.9982 144.778 76.62C144.986 76.2418 145.282 75.9315 145.665 75.6891C146.048 75.4466 146.501 75.2551 147.025 75.1145C147.549 74.9739 148.126 74.8648 148.756 74.7872C149.382 74.7096 149.91 74.6417 150.342 74.5835C150.778 74.5253 151.11 74.4332 151.338 74.3071C151.566 74.1811 151.68 73.9774 151.68 73.6962V73.4344C151.68 72.6731 151.452 72.0743 150.996 71.6379C150.545 71.1966 149.896 70.976 149.047 70.976C148.242 70.976 147.585 71.153 147.076 71.507C146.572 71.8609 146.218 72.2779 146.014 72.7579L144.785 72.3143C145.037 71.7033 145.386 71.216 145.832 70.8524C146.278 70.4838 146.778 70.2196 147.33 70.0596C147.883 69.8947 148.443 69.8123 149.011 69.8123C149.437 69.8123 149.881 69.868 150.342 69.9796C150.807 70.0911 151.239 70.285 151.636 70.5614C152.034 70.833 152.356 71.2136 152.604 71.7033C152.851 72.1882 152.975 72.804 152.975 73.5507V81.1367H151.68V79.3693H151.6C151.445 79.699 151.214 80.0191 150.909 80.3294C150.603 80.6397 150.22 80.8943 149.76 81.0931C149.299 81.2919 148.758 81.3913 148.138 81.3913ZM148.312 80.2057C149.001 80.2057 149.597 80.053 150.102 79.7475C150.606 79.4421 150.994 79.0372 151.265 78.5329C151.542 78.0238 151.68 77.4637 151.68 76.8528V75.2381C151.583 75.3303 151.42 75.4127 151.193 75.4854C150.97 75.5581 150.71 75.6236 150.414 75.6818C150.123 75.7351 149.832 75.7812 149.542 75.82C149.251 75.8588 148.989 75.8927 148.756 75.9218C148.126 75.9994 147.587 76.1206 147.141 76.2855C146.695 76.4503 146.353 76.6782 146.116 76.9692C145.878 77.2552 145.759 77.6237 145.759 78.0747C145.759 78.7535 146.002 79.2796 146.487 79.653C146.972 80.0215 147.58 80.2057 148.312 80.2057ZM158.123 66.2411V81.1367H156.828V66.2411H158.123ZM168.419 81.1367H166.993L172.412 66.2411H173.867L179.285 81.1367H177.86L173.19 68.0085H173.088L168.419 81.1367ZM169.444 75.4272H176.834V76.6491H169.444V75.4272ZM189.485 72.4161L188.299 72.7507C188.183 72.4161 188.018 72.1131 187.804 71.8415C187.591 71.57 187.312 71.3542 186.968 71.1942C186.629 71.0342 186.207 70.9542 185.702 70.9542C184.946 70.9542 184.325 71.1336 183.841 71.4924C183.356 71.8512 183.113 72.3143 183.113 72.8816C183.113 73.3616 183.278 73.752 183.608 74.0526C183.942 74.3484 184.456 74.5835 185.15 74.7581L186.837 75.1727C187.773 75.4006 188.474 75.7618 188.939 76.2564C189.409 76.751 189.645 77.3716 189.645 78.1183C189.645 78.7487 189.47 79.3087 189.121 79.7984C188.772 80.2882 188.284 80.6737 187.659 80.9549C187.038 81.2313 186.318 81.3695 185.499 81.3695C184.408 81.3695 183.508 81.1246 182.8 80.6349C182.093 80.1403 181.639 79.4275 181.44 78.4965L182.684 78.1911C182.844 78.8553 183.157 79.3572 183.622 79.6966C184.093 80.036 184.711 80.2057 185.477 80.2057C186.335 80.2057 187.021 80.0142 187.535 79.6312C188.049 79.2433 188.306 78.7584 188.306 78.1765C188.306 77.7256 188.156 77.3474 187.855 77.0419C187.555 76.7316 187.099 76.5037 186.488 76.3582L184.662 75.9218C183.693 75.6891 182.975 75.3206 182.51 74.8163C182.044 74.312 181.811 73.6865 181.811 72.9398C181.811 72.324 181.979 71.7833 182.313 71.3178C182.648 70.8475 183.108 70.479 183.695 70.2123C184.282 69.9456 184.951 69.8123 185.702 69.8123C186.726 69.8123 187.543 70.045 188.154 70.5105C188.769 70.9712 189.213 71.6064 189.485 72.4161ZM200.395 72.4161L199.209 72.7507C199.093 72.4161 198.928 72.1131 198.715 71.8415C198.501 71.57 198.223 71.3542 197.878 71.1942C197.539 71.0342 197.117 70.9542 196.613 70.9542C195.856 70.9542 195.236 71.1336 194.751 71.4924C194.266 71.8512 194.024 72.3143 194.024 72.8816C194.024 73.3616 194.188 73.752 194.518 74.0526C194.853 74.3484 195.367 74.5835 196.06 74.7581L197.747 75.1727C198.683 75.4006 199.384 75.7618 199.849 76.2564C200.32 76.751 200.555 77.3716 200.555 78.1183C200.555 78.7487 200.38 79.3087 200.031 79.7984C199.682 80.2882 199.195 80.6737 198.569 80.9549C197.949 81.2313 197.229 81.3695 196.409 81.3695C195.318 81.3695 194.419 81.1246 193.711 80.6349C193.003 80.1403 192.55 79.4275 192.351 78.4965L193.594 78.1911C193.754 78.8553 194.067 79.3572 194.533 79.6966C195.003 80.036 195.621 80.2057 196.387 80.2057C197.246 80.2057 197.932 80.0142 198.446 79.6312C198.96 79.2433 199.217 78.7584 199.217 78.1765C199.217 77.7256 199.066 77.3474 198.766 77.0419C198.465 76.7316 198.009 76.5037 197.398 76.3582L195.573 75.9218C194.603 75.6891 193.885 75.3206 193.42 74.8163C192.954 74.312 192.722 73.6865 192.722 72.9398C192.722 72.324 192.889 71.7833 193.224 71.3178C193.558 70.8475 194.019 70.479 194.605 70.2123C195.192 69.9456 195.861 69.8123 196.613 69.8123C197.636 69.8123 198.453 70.045 199.064 70.5105C199.68 70.9712 200.123 71.6064 200.395 72.4161ZM203.814 81.1367V69.965H205.116V81.1367H203.814ZM204.476 68.0449C204.209 68.0449 203.981 67.9552 203.792 67.7758C203.603 67.5915 203.508 67.3709 203.508 67.1139C203.508 66.8569 203.603 66.6387 203.792 66.4593C203.981 66.2751 204.209 66.1829 204.476 66.1829C204.742 66.1829 204.97 66.2751 205.159 66.4593C205.349 66.6387 205.443 66.8569 205.443 67.1139C205.443 67.3709 205.349 67.5915 205.159 67.7758C204.97 67.9552 204.742 68.0449 204.476 68.0449ZM216.455 72.4161L215.27 72.7507C215.153 72.4161 214.989 72.1131 214.775 71.8415C214.562 71.57 214.283 71.3542 213.939 71.1942C213.599 71.0342 213.177 70.9542 212.673 70.9542C211.917 70.9542 211.296 71.1336 210.811 71.4924C210.326 71.8512 210.084 72.3143 210.084 72.8816C210.084 73.3616 210.249 73.752 210.578 74.0526C210.913 74.3484 211.427 74.5835 212.12 74.7581L213.808 75.1727C214.744 75.4006 215.444 75.7618 215.91 76.2564C216.38 76.751 216.615 77.3716 216.615 78.1183C216.615 78.7487 216.441 79.3087 216.092 79.7984C215.742 80.2882 215.255 80.6737 214.63 80.9549C214.009 81.2313 213.289 81.3695 212.47 81.3695C211.379 81.3695 210.479 81.1246 209.771 80.6349C209.063 80.1403 208.61 79.4275 208.411 78.4965L209.655 78.1911C209.815 78.8553 210.128 79.3572 210.593 79.6966C211.063 80.036 211.682 80.2057 212.448 80.2057C213.306 80.2057 213.992 80.0142 214.506 79.6312C215.02 79.2433 215.277 78.7584 215.277 78.1765C215.277 77.7256 215.127 77.3474 214.826 77.0419C214.525 76.7316 214.07 76.5037 213.459 76.3582L211.633 75.9218C210.663 75.6891 209.946 75.3206 209.48 74.8163C209.015 74.312 208.782 73.6865 208.782 72.9398C208.782 72.324 208.949 71.7833 209.284 71.3178C209.618 70.8475 210.079 70.479 210.666 70.2123C211.252 69.9456 211.922 69.8123 212.673 69.8123C213.696 69.8123 214.513 70.045 215.124 70.5105C215.74 70.9712 216.184 71.6064 216.455 72.4161ZM224.26 69.965V71.0924H218.929V69.965H224.26ZM220.594 67.2885H221.896V78.2201C221.896 78.6856 221.976 79.0517 222.136 79.3184C222.296 79.5802 222.505 79.7669 222.762 79.8784C223.019 79.9851 223.293 80.0385 223.584 80.0385C223.753 80.0385 223.899 80.0288 224.02 80.0094C224.141 79.9851 224.248 79.9609 224.34 79.9366L224.616 81.1076C224.49 81.1561 224.335 81.1998 224.151 81.2385C223.967 81.2822 223.739 81.304 223.467 81.304C222.992 81.304 222.534 81.1998 222.093 80.9913C221.656 80.7828 221.297 80.4724 221.016 80.0603C220.735 79.6481 220.594 79.1366 220.594 78.5256V67.2885ZM230.73 81.3913C230.056 81.3913 229.44 81.2604 228.883 80.9985C228.325 80.7318 227.881 80.3488 227.552 79.8494C227.222 79.3451 227.057 78.7341 227.057 78.0165C227.057 77.4637 227.161 76.9982 227.37 76.62C227.578 76.2418 227.874 75.9315 228.257 75.6891C228.64 75.4466 229.094 75.2551 229.617 75.1145C230.141 74.9739 230.718 74.8648 231.348 74.7872C231.974 74.7096 232.502 74.6417 232.934 74.5835C233.37 74.5253 233.702 74.4332 233.93 74.3071C234.158 74.1811 234.272 73.9774 234.272 73.6962V73.4344C234.272 72.6731 234.044 72.0743 233.588 71.6379C233.137 71.1966 232.488 70.976 231.639 70.976C230.834 70.976 230.177 71.153 229.668 71.507C229.164 71.8609 228.81 72.2779 228.606 72.7579L227.377 72.3143C227.629 71.7033 227.978 71.216 228.424 70.8524C228.87 70.4838 229.37 70.2196 229.923 70.0596C230.475 69.8947 231.035 69.8123 231.603 69.8123C232.029 69.8123 232.473 69.868 232.934 69.9796C233.399 70.0911 233.831 70.285 234.228 70.5614C234.626 70.833 234.948 71.2136 235.196 71.7033C235.443 72.1882 235.567 72.804 235.567 73.5507V81.1367H234.272V79.3693H234.192C234.037 79.699 233.807 80.0191 233.501 80.3294C233.196 80.6397 232.813 80.8943 232.352 81.0931C231.891 81.2919 231.351 81.3913 230.73 81.3913ZM230.905 80.2057C231.593 80.2057 232.19 80.053 232.694 79.7475C233.198 79.4421 233.586 79.0372 233.857 78.5329C234.134 78.0238 234.272 77.4637 234.272 76.8528V75.2381C234.175 75.3303 234.013 75.4127 233.785 75.4854C233.562 75.5581 233.302 75.6236 233.007 75.6818C232.716 75.7351 232.425 75.7812 232.134 75.82C231.843 75.8588 231.581 75.8927 231.348 75.9218C230.718 75.9994 230.18 76.1206 229.734 76.2855C229.287 76.4503 228.946 76.6782 228.708 76.9692C228.47 77.2552 228.352 77.6237 228.352 78.0747C228.352 78.7535 228.594 79.2796 229.079 79.653C229.564 80.0215 230.172 80.2057 230.905 80.2057ZM240.715 74.1544V81.1367H239.42V69.965H240.678V71.7179H240.795C241.057 71.1457 241.464 70.6875 242.017 70.3432C242.574 69.9941 243.263 69.8196 244.082 69.8196C244.834 69.8196 245.493 69.9771 246.061 70.2923C246.633 70.6026 247.077 71.0609 247.392 71.667C247.712 72.2731 247.872 73.0174 247.872 73.8998V81.1367H246.577V73.9799C246.577 73.0634 246.32 72.3385 245.806 71.8052C245.297 71.2718 244.613 71.0051 243.755 71.0051C243.168 71.0051 242.647 71.1312 242.191 71.3833C241.736 71.6354 241.374 71.9991 241.108 72.4743C240.846 72.9446 240.715 73.5047 240.715 74.1544ZM256.091 69.965V71.0924H250.76V69.965H256.091ZM252.425 67.2885H253.727V78.2201C253.727 78.6856 253.807 79.0517 253.967 79.3184C254.127 79.5802 254.336 79.7669 254.593 79.8784C254.85 79.9851 255.124 80.0385 255.415 80.0385C255.584 80.0385 255.73 80.0288 255.851 80.0094C255.972 79.9851 256.079 79.9609 256.171 79.9366L256.447 81.1076C256.321 81.1561 256.166 81.1998 255.982 81.2385C255.798 81.2822 255.57 81.304 255.298 81.304C254.823 81.304 254.365 81.1998 253.924 80.9913C253.487 80.7828 253.128 80.4724 252.847 80.0603C252.566 79.6481 252.425 79.1366 252.425 78.5256V67.2885Z" fill="#00BBA7"/>
</svg>
